<svg width="64" height="64" viewBox="0 0 64 64" fill="none" xmlns="http://www.w3.org/2000/svg" role="img" aria-label="sowgrid logo">
  <rect x="4" y="4" width="56" height="56" rx="12" fill="#3f6b4f"/>
  <g stroke="#e4ede4" stroke-width="2.4" stroke-linecap="round" opacity="0.55">
    <line x1="16" y1="26" x2="48" y2="26"/>
    <line x1="16" y1="38" x2="48" y2="38"/>
    <line x1="26" y1="16" x2="26" y2="48"/>
    <line x1="38" y1="16" x2="38" y2="48"/>
  </g>
  <rect x="16" y="16" width="10" height="10" rx="2" fill="#c06a3f"/>
  <rect x="38" y="38" width="10" height="10" rx="2" fill="#c98a3c"/>
  <g stroke="#f6f3ec" stroke-width="2.6" stroke-linecap="round" fill="none">
    <path d="M32 46 V32"/>
    <path d="M32 34 C27 34 24 30 24.5 25 C29.5 25 32 29 32 34 Z" fill="#f6f3ec" stroke="none"/>
    <path d="M32 30 C36 30 39 26.5 38.6 22.5 C34 22.5 32 26 32 30 Z" fill="#e4ede4" stroke="none"/>
  </g>
</svg>
